<svg xmlns="http://www.w3.org/2000/svg" xmlns:xlink="http://www.w3.org/1999/xlink" width="532" zoomAndPan="magnify" viewBox="0 0 398.88 83.249999" height="111" preserveAspectRatio="xMidYMid meet" version="1.0"><defs><g/><clipPath id="af1ea2f8a3"><rect x="0" width="113" y="0" height="44"/></clipPath><clipPath id="f86b5611a7"><path d="M 1.722656 10.367188 L 64.902344 10.367188 L 64.902344 76.519531 L 1.722656 76.519531 Z M 1.722656 10.367188 " clip-rule="nonzero"/></clipPath><clipPath id="b16db773c8"><path d="M 37.839844 41.117188 L 9.777344 41.117188 C 8.6875 41.117188 7.898438 40.078125 8.195312 39.03125 L 15.898438 11.570312 C 16.097656 10.863281 16.746094 10.371094 17.480469 10.371094 L 45.546875 10.371094 C 46.636719 10.371094 47.421875 11.410156 47.128906 12.457031 L 39.421875 39.917969 C 39.226562 40.628906 38.578125 41.117188 37.839844 41.117188 Z M 19.613281 61.84375 L 23.578125 47.707031 C 23.875 46.65625 23.085938 45.617188 21.996094 45.617188 L 7.570312 45.617188 C 6.832031 45.617188 6.1875 46.109375 5.988281 46.816406 L 2.019531 60.957031 C 1.726562 62.003906 2.515625 63.042969 3.601562 63.042969 L 18.03125 63.042969 C 18.765625 63.042969 19.414062 62.554688 19.613281 61.84375 Z M 26.914062 46.816406 L 19.207031 74.277344 C 18.914062 75.324219 19.703125 76.363281 20.789062 76.363281 L 48.855469 76.363281 C 49.59375 76.363281 50.238281 75.875 50.4375 75.164062 L 58.144531 47.707031 C 58.4375 46.65625 57.648438 45.617188 56.5625 45.617188 L 28.496094 45.617188 C 27.757812 45.617188 27.113281 46.109375 26.914062 46.816406 Z M 46.722656 24.890625 L 42.757812 39.03125 C 42.464844 40.078125 43.25 41.117188 44.339844 41.117188 L 58.765625 41.117188 C 59.503906 41.117188 60.148438 40.628906 60.347656 39.917969 L 64.316406 25.78125 C 64.609375 24.730469 63.824219 23.691406 62.734375 23.691406 L 48.304688 23.691406 C 47.570312 23.691406 46.921875 24.183594 46.722656 24.890625 Z M 46.722656 24.890625 " clip-rule="nonzero"/></clipPath><linearGradient x1="114.296455" gradientTransform="matrix(0.131987, 0, 0, 0.131987, 1.958831, 10.371288)" y1="-47.633939" x2="358.621856" gradientUnits="userSpaceOnUse" y2="547.634034" id="31d15c2e18"><stop stop-opacity="1" stop-color="rgb(0%, 52.549744%, 76.858521%)" offset="0"/><stop stop-opacity="1" stop-color="rgb(0%, 52.549744%, 76.858521%)" offset="0.0625"/><stop stop-opacity="1" stop-color="rgb(0%, 52.494812%, 76.806641%)" offset="0.09375"/><stop stop-opacity="1" stop-color="rgb(0%, 52.296448%, 76.617432%)" offset="0.101562"/><stop stop-opacity="1" stop-color="rgb(0%, 52.008057%, 76.341248%)" offset="0.109375"/><stop stop-opacity="1" stop-color="rgb(0%, 51.71814%, 76.063538%)" offset="0.117187"/><stop stop-opacity="1" stop-color="rgb(0%, 51.429749%, 75.787354%)" offset="0.125"/><stop stop-opacity="1" stop-color="rgb(0%, 51.139832%, 75.509644%)" offset="0.132812"/><stop stop-opacity="1" stop-color="rgb(0%, 50.849915%, 75.233459%)" offset="0.140625"/><stop stop-opacity="1" stop-color="rgb(0%, 50.561523%, 74.95575%)" offset="0.148438"/><stop stop-opacity="1" stop-color="rgb(0%, 50.271606%, 74.679565%)" offset="0.15625"/><stop stop-opacity="1" stop-color="rgb(0%, 49.981689%, 74.403381%)" offset="0.164062"/><stop stop-opacity="1" stop-color="rgb(0%, 49.693298%, 74.125671%)" offset="0.171875"/><stop stop-opacity="1" stop-color="rgb(0%, 49.403381%, 73.849487%)" offset="0.179688"/><stop stop-opacity="1" stop-color="rgb(0%, 49.11499%, 73.571777%)" offset="0.1875"/><stop stop-opacity="1" stop-color="rgb(0%, 48.825073%, 73.295593%)" offset="0.195312"/><stop stop-opacity="1" stop-color="rgb(0%, 48.535156%, 73.017883%)" offset="0.203125"/><stop stop-opacity="1" stop-color="rgb(0%, 48.246765%, 72.741699%)" offset="0.210937"/><stop stop-opacity="1" stop-color="rgb(0%, 47.956848%, 72.463989%)" offset="0.21875"/><stop stop-opacity="1" stop-color="rgb(0%, 47.668457%, 72.187805%)" offset="0.226562"/><stop stop-opacity="1" stop-color="rgb(0%, 47.37854%, 71.910095%)" offset="0.234375"/><stop stop-opacity="1" stop-color="rgb(0%, 47.088623%, 71.633911%)" offset="0.242188"/><stop stop-opacity="1" stop-color="rgb(0%, 46.800232%, 71.356201%)" offset="0.25"/><stop stop-opacity="1" stop-color="rgb(0%, 46.510315%, 71.080017%)" offset="0.257812"/><stop stop-opacity="1" stop-color="rgb(0%, 46.220398%, 70.802307%)" offset="0.265625"/><stop stop-opacity="1" stop-color="rgb(0%, 45.932007%, 70.526123%)" offset="0.273437"/><stop stop-opacity="1" stop-color="rgb(0%, 45.64209%, 70.249939%)" offset="0.281145"/><stop stop-opacity="1" stop-color="rgb(0%, 45.498657%, 70.111084%)" offset="0.28125"/><stop stop-opacity="1" stop-color="rgb(0%, 45.353699%, 69.972229%)" offset="0.289062"/><stop stop-opacity="1" stop-color="rgb(0%, 45.063782%, 69.696045%)" offset="0.296875"/><stop stop-opacity="1" stop-color="rgb(0%, 44.773865%, 69.418335%)" offset="0.304688"/><stop stop-opacity="1" stop-color="rgb(0%, 44.485474%, 69.142151%)" offset="0.3125"/><stop stop-opacity="1" stop-color="rgb(0%, 44.195557%, 68.864441%)" offset="0.320312"/><stop stop-opacity="1" stop-color="rgb(0%, 43.90564%, 68.588257%)" offset="0.328125"/><stop stop-opacity="1" stop-color="rgb(0%, 43.617249%, 68.310547%)" offset="0.335938"/><stop stop-opacity="1" stop-color="rgb(0%, 43.327332%, 68.034363%)" offset="0.34375"/><stop stop-opacity="1" stop-color="rgb(0%, 43.03894%, 67.756653%)" offset="0.351562"/><stop stop-opacity="1" stop-color="rgb(0%, 42.749023%, 67.480469%)" offset="0.359375"/><stop stop-opacity="1" stop-color="rgb(0%, 42.459106%, 67.202759%)" offset="0.367187"/><stop stop-opacity="1" stop-color="rgb(0%, 42.170715%, 66.926575%)" offset="0.375"/><stop stop-opacity="1" stop-color="rgb(0%, 41.880798%, 66.648865%)" offset="0.382813"/><stop stop-opacity="1" stop-color="rgb(0%, 41.592407%, 66.372681%)" offset="0.390625"/><stop stop-opacity="1" stop-color="rgb(0%, 41.30249%, 66.094971%)" offset="0.398438"/><stop stop-opacity="1" stop-color="rgb(0%, 41.012573%, 65.818787%)" offset="0.40625"/><stop stop-opacity="1" stop-color="rgb(0%, 40.724182%, 65.542603%)" offset="0.414062"/><stop stop-opacity="1" stop-color="rgb(0%, 40.434265%, 65.264893%)" offset="0.421875"/><stop stop-opacity="1" stop-color="rgb(0%, 40.144348%, 64.988708%)" offset="0.429688"/><stop stop-opacity="1" stop-color="rgb(0%, 39.855957%, 64.710999%)" offset="0.4375"/><stop stop-opacity="1" stop-color="rgb(0%, 39.56604%, 64.434814%)" offset="0.445312"/><stop stop-opacity="1" stop-color="rgb(0%, 39.277649%, 64.157104%)" offset="0.453125"/><stop stop-opacity="1" stop-color="rgb(0%, 38.987732%, 63.88092%)" offset="0.460938"/><stop stop-opacity="1" stop-color="rgb(0%, 38.697815%, 63.60321%)" offset="0.46875"/><stop stop-opacity="1" stop-color="rgb(0%, 38.409424%, 63.327026%)" offset="0.476563"/><stop stop-opacity="1" stop-color="rgb(0%, 38.119507%, 63.049316%)" offset="0.484375"/><stop stop-opacity="1" stop-color="rgb(0%, 37.831116%, 62.773132%)" offset="0.492188"/><stop stop-opacity="1" stop-color="rgb(0%, 37.541199%, 62.495422%)" offset="0.5"/><stop stop-opacity="1" stop-color="rgb(0%, 37.251282%, 62.219238%)" offset="0.507812"/><stop stop-opacity="1" stop-color="rgb(0%, 36.962891%, 61.941528%)" offset="0.515625"/><stop stop-opacity="1" stop-color="rgb(0%, 36.672974%, 61.665344%)" offset="0.523438"/><stop stop-opacity="1" stop-color="rgb(0%, 36.383057%, 61.38916%)" offset="0.53125"/><stop stop-opacity="1" stop-color="rgb(0%, 36.094666%, 61.11145%)" offset="0.539062"/><stop stop-opacity="1" stop-color="rgb(0%, 35.804749%, 60.835266%)" offset="0.546875"/><stop stop-opacity="1" stop-color="rgb(0%, 35.516357%, 60.557556%)" offset="0.554687"/><stop stop-opacity="1" stop-color="rgb(0%, 35.22644%, 60.281372%)" offset="0.5625"/><stop stop-opacity="1" stop-color="rgb(0%, 34.936523%, 60.003662%)" offset="0.570312"/><stop stop-opacity="1" stop-color="rgb(0%, 34.648132%, 59.727478%)" offset="0.578125"/><stop stop-opacity="1" stop-color="rgb(0%, 34.358215%, 59.449768%)" offset="0.585938"/><stop stop-opacity="1" stop-color="rgb(0%, 34.068298%, 59.173584%)" offset="0.59375"/><stop stop-opacity="1" stop-color="rgb(0%, 33.779907%, 58.895874%)" offset="0.601562"/><stop stop-opacity="1" stop-color="rgb(0%, 33.48999%, 58.61969%)" offset="0.609375"/><stop stop-opacity="1" stop-color="rgb(0%, 33.201599%, 58.34198%)" offset="0.617188"/><stop stop-opacity="1" stop-color="rgb(0%, 32.911682%, 58.065796%)" offset="0.625"/><stop stop-opacity="1" stop-color="rgb(0%, 32.621765%, 57.788086%)" offset="0.632812"/><stop stop-opacity="1" stop-color="rgb(0%, 32.333374%, 57.511902%)" offset="0.640625"/><stop stop-opacity="1" stop-color="rgb(0%, 32.043457%, 57.235718%)" offset="0.648437"/><stop stop-opacity="1" stop-color="rgb(0%, 31.755066%, 56.958008%)" offset="0.65625"/><stop stop-opacity="1" stop-color="rgb(0%, 31.465149%, 56.681824%)" offset="0.664063"/><stop stop-opacity="1" stop-color="rgb(0%, 31.175232%, 56.404114%)" offset="0.671875"/><stop stop-opacity="1" stop-color="rgb(0%, 30.886841%, 56.12793%)" offset="0.679688"/><stop stop-opacity="1" stop-color="rgb(0%, 30.596924%, 55.85022%)" offset="0.6875"/><stop stop-opacity="1" stop-color="rgb(0%, 30.307007%, 55.574036%)" offset="0.695312"/><stop stop-opacity="1" stop-color="rgb(0%, 30.018616%, 55.296326%)" offset="0.703125"/><stop stop-opacity="1" stop-color="rgb(0%, 29.728699%, 55.020142%)" offset="0.710938"/><stop stop-opacity="1" stop-color="rgb(0%, 29.440308%, 54.742432%)" offset="0.71875"/><stop stop-opacity="1" stop-color="rgb(0%, 29.150391%, 54.466248%)" offset="0.718855"/><stop stop-opacity="1" stop-color="rgb(0%, 29.005432%, 54.327393%)" offset="0.726562"/><stop stop-opacity="1" stop-color="rgb(0%, 28.860474%, 54.188538%)" offset="0.734375"/><stop stop-opacity="1" stop-color="rgb(0%, 28.572083%, 53.912354%)" offset="0.742187"/><stop stop-opacity="1" stop-color="rgb(0%, 28.282166%, 53.634644%)" offset="0.75"/><stop stop-opacity="1" stop-color="rgb(0%, 27.992249%, 53.358459%)" offset="0.757813"/><stop stop-opacity="1" stop-color="rgb(0%, 27.703857%, 53.082275%)" offset="0.765625"/><stop stop-opacity="1" stop-color="rgb(0%, 27.41394%, 52.804565%)" offset="0.773438"/><stop stop-opacity="1" stop-color="rgb(0%, 27.125549%, 52.528381%)" offset="0.78125"/><stop stop-opacity="1" stop-color="rgb(0%, 26.835632%, 52.250671%)" offset="0.789062"/><stop stop-opacity="1" stop-color="rgb(0%, 26.545715%, 51.974487%)" offset="0.796875"/><stop stop-opacity="1" stop-color="rgb(0%, 26.257324%, 51.696777%)" offset="0.804688"/><stop stop-opacity="1" stop-color="rgb(0%, 25.967407%, 51.420593%)" offset="0.8125"/><stop stop-opacity="1" stop-color="rgb(0%, 25.679016%, 51.142883%)" offset="0.820312"/><stop stop-opacity="1" stop-color="rgb(0%, 25.389099%, 50.866699%)" offset="0.828125"/><stop stop-opacity="1" stop-color="rgb(0%, 25.170898%, 50.657654%)" offset="0.84375"/><stop stop-opacity="1" stop-color="rgb(0%, 25.099182%, 50.588989%)" offset="0.875"/><stop stop-opacity="1" stop-color="rgb(0%, 25.099182%, 50.588989%)" offset="1"/></linearGradient></defs><g transform="matrix(1, 0, 0, 1, 86, 5)"><g clip-path="url(#af1ea2f8a3)"><g fill="#004081" fill-opacity="1"><g transform="translate(0.164657, 33.634267)"><g><path d="M 2.0625 0 L 2.0625 -22.890625 L 13.25 -22.890625 C 14.40625 -22.890625 15.46875 -22.710938 16.4375 -22.359375 C 17.40625 -22.015625 18.238281 -21.53125 18.9375 -20.90625 C 19.632812 -20.289062 20.175781 -19.546875 20.5625 -18.671875 C 20.957031 -17.796875 21.15625 -16.835938 21.15625 -15.796875 C 21.15625 -14.359375 20.742188 -13.070312 19.921875 -11.9375 C 19.109375 -10.800781 18.023438 -9.960938 16.671875 -9.421875 L 21.75 0 L 16.453125 0 L 11.96875 -8.765625 L 6.796875 -8.765625 L 6.796875 0 Z M 12.8125 -18.796875 L 6.796875 -18.796875 L 6.796875 -12.65625 L 12.8125 -12.65625 C 13.882812 -12.65625 14.742188 -12.9375 15.390625 -13.5 C 16.035156 -14.070312 16.359375 -14.816406 16.359375 -15.734375 C 16.359375 -16.648438 16.035156 -17.390625 15.390625 -17.953125 C 14.742188 -18.515625 13.882812 -18.796875 12.8125 -18.796875 Z M 12.8125 -18.796875 "/></g></g></g><g fill="#004081" fill-opacity="1"><g transform="translate(22.373446, 33.634267)"><g><path d="M 0.59375 -18.703125 L 0.59375 -22.890625 L 20.734375 -22.890625 L 20.734375 -18.703125 L 13.046875 -18.703125 L 13.046875 0 L 8.3125 0 L 8.3125 -18.703125 Z M 0.59375 -18.703125 "/></g></g></g><g fill="#004081" fill-opacity="1"><g transform="translate(43.69912, 33.634267)"><g><path d="M 2.0625 0 L 2.0625 -22.890625 L 19.65625 -22.890625 L 19.65625 -18.765625 L 6.796875 -18.765625 L 6.796875 -13.546875 L 15.265625 -13.546875 L 15.265625 -9.546875 L 6.796875 -9.546875 L 6.796875 -4.125 L 19.78125 -4.125 L 19.78125 0 Z M 2.0625 0 "/></g></g></g><g fill="#004081" fill-opacity="1"><g transform="translate(64.795835, 33.634267)"><g><path d="M 13.5 -4.0625 C 14.707031 -4.0625 15.832031 -4.3125 16.875 -4.8125 C 17.914062 -5.3125 18.84375 -6.03125 19.65625 -6.96875 L 22.765625 -3.890625 C 21.671875 -2.609375 20.28125 -1.582031 18.59375 -0.8125 C 16.90625 -0.0507812 15.164062 0.328125 13.375 0.328125 C 11.65625 0.328125 10.046875 0.0234375 8.546875 -0.578125 C 7.054688 -1.191406 5.765625 -2.019531 4.671875 -3.0625 C 3.585938 -4.113281 2.734375 -5.359375 2.109375 -6.796875 C 1.484375 -8.234375 1.171875 -9.785156 1.171875 -11.453125 C 1.171875 -13.109375 1.488281 -14.660156 2.125 -16.109375 C 2.757812 -17.554688 3.617188 -18.800781 4.703125 -19.84375 C 5.796875 -20.894531 7.085938 -21.722656 8.578125 -22.328125 C 10.078125 -22.941406 11.675781 -23.25 13.375 -23.25 C 15.207031 -23.25 16.984375 -22.863281 18.703125 -22.09375 C 20.429688 -21.320312 21.828125 -20.28125 22.890625 -18.96875 L 19.6875 -15.796875 C 18.882812 -16.796875 17.9375 -17.5625 16.84375 -18.09375 C 15.75 -18.632812 14.59375 -18.90625 13.375 -18.90625 C 12.351562 -18.90625 11.390625 -18.710938 10.484375 -18.328125 C 9.578125 -17.953125 8.796875 -17.429688 8.140625 -16.765625 C 7.484375 -16.097656 6.96875 -15.3125 6.59375 -14.40625 C 6.226562 -13.5 6.046875 -12.515625 6.046875 -11.453125 C 6.046875 -10.398438 6.234375 -9.421875 6.609375 -8.515625 C 6.992188 -7.609375 7.519531 -6.828125 8.1875 -6.171875 C 8.851562 -5.523438 9.640625 -5.007812 10.546875 -4.625 C 11.453125 -4.25 12.4375 -4.0625 13.5 -4.0625 Z M 13.5 -4.0625 "/></g></g></g><g fill="#004081" fill-opacity="1"><g transform="translate(88.280237, 33.634267)"><g><path d="M 2.0625 0 L 2.0625 -22.890625 L 6.796875 -22.890625 L 6.796875 -13.703125 L 17.328125 -13.703125 L 17.328125 -22.890625 L 22.078125 -22.890625 L 22.078125 0 L 17.328125 0 L 17.328125 -9.359375 L 6.796875 -9.359375 L 6.796875 0 Z M 2.0625 0 "/></g></g></g></g></g><g fill="#0086c4" fill-opacity="1"><g transform="translate(86.164656, 69.933477)"><g><path d="M 1.5625 0 L 1.5625 -17.34375 L 5.15625 -17.34375 L 5.15625 0 Z M 1.5625 0 "/></g></g></g><g fill="#0086c4" fill-opacity="1"><g transform="translate(108.913991, 69.933477)"><g><path d="M 1.5625 -17.34375 L 4.984375 -17.34375 L 13.609375 -6.125 L 13.609375 -17.34375 L 16.96875 -17.34375 L 16.96875 0 L 13.796875 0 L 4.953125 -11.59375 L 4.953125 0 L 1.5625 0 Z M 1.5625 -17.34375 "/></g></g></g><g fill="#0086c4" fill-opacity="1"><g transform="translate(143.479975, 69.933477)"><g><path d="M 1.5625 0 L 1.5625 -17.34375 L 8.234375 -17.34375 C 9.515625 -17.34375 10.71875 -17.117188 11.84375 -16.671875 C 12.96875 -16.234375 13.9375 -15.625 14.75 -14.84375 C 15.570312 -14.0625 16.21875 -13.132812 16.6875 -12.0625 C 17.15625 -10.988281 17.390625 -9.84375 17.390625 -8.625 C 17.390625 -7.414062 17.15625 -6.28125 16.6875 -5.21875 C 16.21875 -4.164062 15.570312 -3.253906 14.75 -2.484375 C 13.9375 -1.722656 12.96875 -1.117188 11.84375 -0.671875 C 10.71875 -0.222656 9.515625 0 8.234375 0 Z M 8.203125 -14.15625 L 5.15625 -14.15625 L 5.15625 -3.203125 L 8.203125 -3.203125 C 8.960938 -3.203125 9.675781 -3.34375 10.34375 -3.625 C 11.007812 -3.90625 11.59375 -4.285156 12.09375 -4.765625 C 12.59375 -5.253906 12.976562 -5.828125 13.25 -6.484375 C 13.53125 -7.148438 13.671875 -7.863281 13.671875 -8.625 C 13.671875 -9.394531 13.53125 -10.117188 13.25 -10.796875 C 12.976562 -11.484375 12.59375 -12.070312 12.09375 -12.5625 C 11.59375 -13.0625 11.007812 -13.453125 10.34375 -13.734375 C 9.675781 -14.015625 8.960938 -14.15625 8.203125 -14.15625 Z M 8.203125 -14.15625 "/></g></g></g><g fill="#0086c4" fill-opacity="1"><g transform="translate(177.773459, 69.933477)"><g><path d="M 19.25 -8.671875 C 19.25 -7.429688 19.007812 -6.257812 18.53125 -5.15625 C 18.050781 -4.0625 17.398438 -3.113281 16.578125 -2.3125 C 15.765625 -1.507812 14.796875 -0.878906 13.671875 -0.421875 C 12.554688 0.0351562 11.351562 0.265625 10.0625 0.265625 C 8.789062 0.265625 7.59375 0.0351562 6.46875 -0.421875 C 5.34375 -0.878906 4.367188 -1.507812 3.546875 -2.3125 C 2.734375 -3.113281 2.085938 -4.0625 1.609375 -5.15625 C 1.128906 -6.257812 0.890625 -7.429688 0.890625 -8.671875 C 0.890625 -9.910156 1.128906 -11.078125 1.609375 -12.171875 C 2.085938 -13.273438 2.734375 -14.226562 3.546875 -15.03125 C 4.367188 -15.832031 5.34375 -16.460938 6.46875 -16.921875 C 7.59375 -17.390625 8.789062 -17.625 10.0625 -17.625 C 11.351562 -17.625 12.554688 -17.390625 13.671875 -16.921875 C 14.796875 -16.460938 15.765625 -15.832031 16.578125 -15.03125 C 17.398438 -14.226562 18.050781 -13.273438 18.53125 -12.171875 C 19.007812 -11.078125 19.25 -9.910156 19.25 -8.671875 Z M 15.5625 -8.671875 C 15.5625 -9.484375 15.421875 -10.226562 15.140625 -10.90625 C 14.859375 -11.59375 14.472656 -12.1875 13.984375 -12.6875 C 13.503906 -13.195312 12.921875 -13.597656 12.234375 -13.890625 C 11.554688 -14.179688 10.832031 -14.328125 10.0625 -14.328125 C 9.28125 -14.328125 8.554688 -14.179688 7.890625 -13.890625 C 7.222656 -13.597656 6.644531 -13.195312 6.15625 -12.6875 C 5.664062 -12.1875 5.28125 -11.59375 5 -10.90625 C 4.71875 -10.226562 4.578125 -9.484375 4.578125 -8.671875 C 4.578125 -7.878906 4.71875 -7.132812 5 -6.4375 C 5.28125 -5.75 5.664062 -5.148438 6.15625 -4.640625 C 6.644531 -4.140625 7.222656 -3.742188 7.890625 -3.453125 C 8.554688 -3.160156 9.28125 -3.015625 10.0625 -3.015625 C 10.832031 -3.015625 11.554688 -3.160156 12.234375 -3.453125 C 12.921875 -3.742188 13.503906 -4.140625 13.984375 -4.640625 C 14.472656 -5.148438 14.859375 -5.75 15.140625 -6.4375 C 15.421875 -7.132812 15.5625 -7.878906 15.5625 -8.671875 Z M 15.5625 -8.671875 "/></g></g></g><g fill="#0086c4" fill-opacity="1"><g transform="translate(213.924906, 69.933477)"><g><path d="M 1.5625 -17.34375 L 4.984375 -17.34375 L 13.609375 -6.125 L 13.609375 -17.34375 L 16.96875 -17.34375 L 16.96875 0 L 13.796875 0 L 4.953125 -11.59375 L 4.953125 0 L 1.5625 0 Z M 1.5625 -17.34375 "/></g></g></g><g fill="#0086c4" fill-opacity="1"><g transform="translate(248.490891, 69.933477)"><g><path d="M 1.5625 0 L 1.5625 -17.34375 L 14.890625 -17.34375 L 14.890625 -14.21875 L 5.15625 -14.21875 L 5.15625 -10.265625 L 11.578125 -10.265625 L 11.578125 -7.234375 L 5.15625 -7.234375 L 5.15625 -3.125 L 15 -3.125 L 15 0 Z M 1.5625 0 "/></g></g></g><g fill="#0086c4" fill-opacity="1"><g transform="translate(280.480503, 69.933477)"><g><path d="M 0.078125 -2.75 L 2.125 -5.328125 C 3.132812 -4.453125 4.101562 -3.8125 5.03125 -3.40625 C 5.96875 -3 6.957031 -2.796875 8 -2.796875 C 9.070312 -2.796875 9.929688 -2.992188 10.578125 -3.390625 C 11.222656 -3.785156 11.546875 -4.316406 11.546875 -4.984375 C 11.546875 -5.578125 11.328125 -6.035156 10.890625 -6.359375 C 10.453125 -6.691406 9.722656 -6.941406 8.703125 -7.109375 L 5.25 -7.703125 C 3.757812 -7.953125 2.628906 -8.472656 1.859375 -9.265625 C 1.097656 -10.054688 0.71875 -11.082031 0.71875 -12.34375 C 0.71875 -13.957031 1.332031 -15.234375 2.5625 -16.171875 C 3.789062 -17.117188 5.457031 -17.59375 7.5625 -17.59375 C 8.8125 -17.59375 10.078125 -17.378906 11.359375 -16.953125 C 12.640625 -16.523438 13.757812 -15.929688 14.71875 -15.171875 L 12.78125 -12.484375 C 11.863281 -13.203125 10.957031 -13.726562 10.0625 -14.0625 C 9.164062 -14.40625 8.25 -14.578125 7.3125 -14.578125 C 6.351562 -14.578125 5.582031 -14.394531 5 -14.03125 C 4.425781 -13.675781 4.140625 -13.203125 4.140625 -12.609375 C 4.140625 -12.085938 4.328125 -11.675781 4.703125 -11.375 C 5.085938 -11.070312 5.722656 -10.859375 6.609375 -10.734375 L 9.890625 -10.1875 C 11.609375 -9.90625 12.898438 -9.351562 13.765625 -8.53125 C 14.628906 -7.71875 15.0625 -6.640625 15.0625 -5.296875 C 15.0625 -3.617188 14.394531 -2.273438 13.0625 -1.265625 C 11.738281 -0.253906 9.96875 0.25 7.75 0.25 C 6.363281 0.25 5 -0.015625 3.65625 -0.546875 C 2.3125 -1.078125 1.117188 -1.8125 0.078125 -2.75 Z M 0.078125 -2.75 "/></g></g></g><g fill="#0086c4" fill-opacity="1"><g transform="translate(312.148074, 69.933477)"><g><path d="M 1.5625 0 L 1.5625 -17.34375 L 5.15625 -17.34375 L 5.15625 0 Z M 1.5625 0 "/></g></g></g><g fill="#0086c4" fill-opacity="1"><g transform="translate(334.897408, 69.933477)"><g><path d="M -0.09375 0 L 7.03125 -17.34375 L 11.203125 -17.34375 L 18.234375 0 L 14.34375 0 L 12.59375 -4.5625 L 5.421875 -4.5625 L 3.640625 0 Z M 6.546875 -7.4375 L 11.5 -7.4375 L 9.046875 -13.828125 Z M 6.546875 -7.4375 "/></g></g></g><g clip-path="url(#f86b5611a7)"><g clip-path="url(#b16db773c8)"><path fill="url(#31d15c2e18)" d="M 1.726562 10.371094 L 1.726562 76.363281 L 64.609375 76.363281 L 64.609375 10.371094 Z M 1.726562 10.371094 " fill-rule="nonzero"/></g></g></svg>